<?xml version="1.0" encoding="utf-8"?>
<!-- Generator: Adobe Illustrator 16.0.0, SVG Export Plug-In . SVG Version: 6.00 Build 0)  -->
<!DOCTYPE svg PUBLIC "-//W3C//DTD SVG 1.1//EN" "http://www.w3.org/Graphics/SVG/1.1/DTD/svg11.dtd">
<svg version="1.1" id="Calque_1" xmlns="http://www.w3.org/2000/svg" xmlns:xlink="http://www.w3.org/1999/xlink" x="0px" y="0px"
	 width="312.243px" height="45px" viewBox="0 0 312.243 45" enable-background="new 0 0 312.243 45" xml:space="preserve">
<polygon points="0,0 0.173,45 284.154,45 312.131,0 "/>
<g>
	<g>
		<path fill="#FFFFFF" d="M156.827,7.696c-9.028,0-16.842,4.025-19,9.787c-1.6,4.268,1.938,6.664,5.204,8.276
			c3.404,1.586,3.827,2.543,3.409,3.655c-0.828,2.209-4.108,3.195-6.992,3.195c-3.079,0-6.038-0.665-8.119-1.824l-0.266-0.148
			l-5.129,5.681l0.34,0.251c1.844,1.354,5.722,2.165,10.373,2.165c9.589,0,17.276-3.979,19.583-10.136
			c1.267-3.38-0.33-6.073-4.867-8.229c-2.698-1.388-4.326-2.308-3.819-3.664c0.515-1.371,2.792-2.845,6.583-2.845l0.233-0.001
			c3.511,0,5.813,1.057,6.24,1.269l0.266,0.132l5.02-5.823l-0.437-0.22C163.417,8.193,160.597,7.696,156.827,7.696z"/>
		<path fill="#FFFFFF" d="M110.84,8.174L99.198,21.377c-2.034,2.408-4.115,4.929-6.208,7.512c0.96-2.273,1.894-4.572,2.875-7.084
			l5.224-13.63h-9.675l-11.9,13.286c-2.615,3.018-4.723,5.486-6.634,7.768c0.925-2.286,1.951-4.909,2.952-7.471l5.031-13.583h-9.038
			l-9.776,30.122h9.755l11.083-12.016c2.578-2.842,4.667-5.394,6.687-7.861c0.058-0.07,0.115-0.141,0.172-0.209
			c-1.093,2.545-2.051,4.935-3.018,7.513l-4.417,12.573h9.597l28.547-30.123H110.84L110.84,8.174z"/>
		<path fill="#FFFFFF" d="M64.952,9.218c-2.031-1.024-4.852-1.522-8.624-1.522c-9.027,0-16.839,4.025-18.998,9.787
			c-1.599,4.27,1.938,6.664,5.205,8.276c3.403,1.586,3.826,2.541,3.409,3.655c-0.828,2.209-4.108,3.195-6.993,3.195
			c-3.08,0-6.038-0.665-8.118-1.824l-0.266-0.148l-5.132,5.681l0.34,0.251c1.844,1.354,5.723,2.165,10.375,2.165
			c9.589,0,17.275-3.979,19.583-10.136c1.266-3.38-0.33-6.073-4.868-8.229c-2.697-1.389-4.325-2.309-3.817-3.664
			c0.515-1.371,2.792-2.845,6.583-2.845l0.233-0.001c3.511,0,5.813,1.057,6.24,1.269l0.266,0.132l5.019-5.822L64.952,9.218z"/>
		<polygon fill="#FFFFFF" points="126.156,8.175 107.431,38.295 116.488,38.295 135.212,8.175 		"/>
		<polygon fill="#FFFFFF" points="203.852,6.149 195.742,19.188 184.085,19.188 179.667,26.297 191.281,26.297 182.606,40.326 
			192.789,40.326 214.033,6.149 		"/>
		<polygon fill="#FFFFFF" points="235.7,11.859 230.364,20.441 220.867,20.441 226.205,11.859 219.195,11.859 205.049,34.615 
			212.057,34.615 217.809,25.383 227.266,25.383 221.555,34.615 228.564,34.615 242.71,11.859 		"/>
		<polygon fill="#FFFFFF" points="257.124,16.61 254.092,21.484 249.088,21.484 252.117,16.61 247.749,16.61 239.508,29.865 
			243.878,29.865 247.146,24.621 252.128,24.621 248.886,29.865 253.255,29.865 261.494,16.61 		"/>
	</g>
	<polygon fill="#FF6600" points="163.27,45 186.571,7.516 177.024,7.516 153.721,45 	"/>
</g>
</svg>
