<?xml version="1.0" encoding="utf-8"?>
<!-- Generator: Adobe Illustrator 16.0.0, SVG Export Plug-In . SVG Version: 6.00 Build 0)  -->
<!DOCTYPE svg PUBLIC "-//W3C//DTD SVG 1.1//EN" "http://www.w3.org/Graphics/SVG/1.1/DTD/svg11.dtd">
<svg version="1.1" id="Calque_1" xmlns="http://www.w3.org/2000/svg" xmlns:xlink="http://www.w3.org/1999/xlink" x="0px" y="0px"
	 width="41.214px" height="41.214px" viewBox="47.057 8.456 41.214 41.214" enable-background="new 47.057 8.456 41.214 41.214"
	 xml:space="preserve">
<g>
	<circle fill="#FF6600" cx="978.265" cy="509.312" r="16.951"/>
	<g>
		<path fill="#FFFFFF" d="M984.545,506.762l0.02,0.41c0,1.028-0.188,2.058-0.566,3.086c-0.403,1.055-0.97,1.992-1.699,2.813
			c-0.781,0.886-1.692,1.569-2.734,2.051c-1.146,0.534-2.402,0.801-3.77,0.801c-0.847,0-1.673-0.124-2.48-0.371
			c-0.794-0.234-1.536-0.573-2.227-1.016c0.247,0.026,0.495,0.046,0.742,0.059c0.703,0,1.38-0.117,2.031-0.352
			s1.243-0.56,1.777-0.977c-0.664-0.013-1.26-0.218-1.787-0.615s-0.889-0.901-1.084-1.514c0.195,0.026,0.391,0.039,0.586,0.039
			c0.273,0,0.54-0.032,0.801-0.098c-0.703-0.144-1.289-0.498-1.758-1.064s-0.703-1.221-0.703-1.963v-0.039
			c0.43,0.247,0.892,0.378,1.387,0.391c-0.417-0.273-0.749-0.638-0.996-1.094s-0.371-0.944-0.371-1.465
			c0-0.56,0.137-1.074,0.41-1.543c0.781,0.95,1.712,1.699,2.793,2.246c1.12,0.586,2.305,0.905,3.555,0.957
			c-0.052-0.222-0.078-0.456-0.078-0.703c0-0.547,0.14-1.058,0.42-1.533s0.654-0.85,1.123-1.123s0.983-0.41,1.543-0.41
			c0.43,0,0.84,0.085,1.23,0.254s0.729,0.41,1.016,0.723c0.69-0.144,1.341-0.397,1.953-0.762c-0.117,0.364-0.293,0.693-0.527,0.986
			s-0.508,0.537-0.82,0.732c0.612-0.078,1.198-0.241,1.758-0.488C985.671,505.805,985.157,506.333,984.545,506.762z"/>
	</g>
</g>
<g>
	<path fill="#FF6600" d="M73.719,21.758c-0.576-0.331-1.201-0.496-1.881-0.496h-7.573c-0.68,0-1.307,0.165-1.881,0.496
		s-1.025,0.783-1.357,1.358c-0.33,0.573-0.496,1.2-0.496,1.88v7.572c0,0.68,0.166,1.307,0.496,1.881
		c0.332,0.574,0.783,1.027,1.357,1.357c0.574,0.332,1.201,0.496,1.881,0.496h7.573c0.68,0,1.305-0.164,1.881-0.496
		c0.574-0.33,1.027-0.783,1.357-1.357s0.496-1.201,0.496-1.881v-7.572c0-0.68-0.166-1.307-0.496-1.88
		C74.747,22.541,74.294,22.089,73.719,21.758z M72.387,31.289c-0.453,0.768-1.063,1.377-1.828,1.828
		c-0.766,0.453-1.602,0.68-2.506,0.68c-0.906,0-1.743-0.227-2.508-0.68c-0.766-0.451-1.375-1.061-1.828-1.828
		c-0.453-0.766-0.678-1.601-0.678-2.506s0.225-1.74,0.678-2.507s1.063-1.375,1.828-1.828c0.766-0.452,1.602-0.679,2.508-0.679
		c0.904,0,1.74,0.227,2.506,0.679c0.766,0.453,1.375,1.062,1.828,1.828s0.68,1.602,0.68,2.507S72.841,30.523,72.387,31.289z
		 M73.522,24.382c-0.146,0.148-0.324,0.222-0.535,0.222c-0.207,0-0.387-0.073-0.535-0.222c-0.148-0.147-0.221-0.326-0.221-0.535
		s0.072-0.387,0.221-0.535s0.328-0.222,0.535-0.222c0.211,0,0.389,0.073,0.535,0.222c0.148,0.148,0.223,0.326,0.223,0.535
		S73.671,24.234,73.522,24.382z"/>
	<path fill="#FF6600" d="M69.737,25.884c-0.514-0.296-1.074-0.444-1.684-0.444s-1.172,0.148-1.686,0.444s-0.918,0.7-1.213,1.214
		c-0.299,0.514-0.445,1.075-0.445,1.685s0.146,1.17,0.445,1.684c0.295,0.514,0.699,0.918,1.213,1.215s1.077,0.443,1.686,0.443
		s1.17-0.146,1.684-0.443s0.918-0.701,1.215-1.215c0.295-0.514,0.443-1.075,0.443-1.684s-0.148-1.171-0.443-1.685
		C70.655,26.584,70.251,26.18,69.737,25.884z"/>
	<path fill="#FF6600" d="M67.661,8.456c-11.381,0-20.604,9.226-20.604,20.607c0,11.381,9.223,20.606,20.604,20.606
		c11.383,0,20.607-9.225,20.607-20.606C88.268,17.682,79.044,8.456,67.661,8.456z M77.245,32.568c0,0.975-0.244,1.877-0.732,2.703
		c-0.486,0.826-1.145,1.484-1.971,1.971c-0.828,0.488-1.729,0.732-2.703,0.732h-7.573c-0.975,0-1.877-0.244-2.703-0.732
		c-0.826-0.486-1.484-1.145-1.971-1.971c-0.488-0.826-0.732-1.729-0.732-2.703v-7.572c0-0.975,0.244-1.876,0.732-2.703
		c0.486-0.826,1.145-1.484,1.971-1.972s1.729-0.731,2.703-0.731h7.573c0.975,0,1.875,0.244,2.703,0.731
		c0.826,0.487,1.484,1.146,1.971,1.972c0.488,0.827,0.732,1.729,0.732,2.703V32.568z"/>
</g>
</svg>
