<?xml version="1.0" encoding="utf-8"?>
<!-- Generator: Adobe Illustrator 16.0.0, SVG Export Plug-In . SVG Version: 6.00 Build 0)  -->
<!DOCTYPE svg PUBLIC "-//W3C//DTD SVG 1.1//EN" "http://www.w3.org/Graphics/SVG/1.1/DTD/svg11.dtd">
<svg version="1.1" id="Calque_1" xmlns="http://www.w3.org/2000/svg" xmlns:xlink="http://www.w3.org/1999/xlink" x="0px" y="0px"
	 width="41.214px" height="41.214px" viewBox="47.057 8.456 41.214 41.214" enable-background="new 47.057 8.456 41.214 41.214"
	 xml:space="preserve">
<g>
	<circle fill="#FF6600" cx="978.265" cy="509.312" r="16.951"/>
	<g>
		<path fill="#FFFFFF" d="M984.545,506.762l0.02,0.41c0,1.028-0.188,2.058-0.566,3.086c-0.403,1.055-0.97,1.992-1.699,2.813
			c-0.781,0.886-1.692,1.569-2.734,2.051c-1.146,0.534-2.402,0.801-3.77,0.801c-0.847,0-1.673-0.124-2.48-0.371
			c-0.794-0.234-1.536-0.573-2.227-1.016c0.247,0.026,0.495,0.046,0.742,0.059c0.703,0,1.38-0.117,2.031-0.352
			s1.243-0.56,1.777-0.977c-0.664-0.013-1.26-0.218-1.787-0.615s-0.889-0.901-1.084-1.514c0.195,0.026,0.391,0.039,0.586,0.039
			c0.273,0,0.54-0.032,0.801-0.098c-0.703-0.144-1.289-0.498-1.758-1.064s-0.703-1.221-0.703-1.963v-0.039
			c0.43,0.247,0.892,0.378,1.387,0.391c-0.417-0.273-0.749-0.638-0.996-1.094s-0.371-0.944-0.371-1.465
			c0-0.56,0.137-1.074,0.41-1.543c0.781,0.95,1.712,1.699,2.793,2.246c1.12,0.586,2.305,0.905,3.555,0.957
			c-0.052-0.222-0.078-0.456-0.078-0.703c0-0.547,0.14-1.058,0.42-1.533s0.654-0.85,1.123-1.123s0.983-0.41,1.543-0.41
			c0.43,0,0.84,0.085,1.23,0.254s0.729,0.41,1.016,0.723c0.69-0.144,1.341-0.397,1.953-0.762c-0.117,0.364-0.293,0.693-0.527,0.986
			s-0.508,0.537-0.82,0.732c0.612-0.078,1.198-0.241,1.758-0.488C985.671,505.805,985.157,506.333,984.545,506.762z"/>
	</g>
</g>
<g>
	<polygon fill="#5A5A5A" points="67.218,30.788 70.537,28.881 67.218,26.975 	"/>
	<path fill="#5A5A5A" d="M76.347,23.189c-0.254-0.244-0.555-0.392-0.902-0.444c-2.523-0.365-4.986-0.549-7.392-0.549
		c-2.419,0-4.88,0.184-7.388,0.549c-0.348,0.053-0.648,0.2-0.9,0.444c-0.254,0.243-0.414,0.54-0.484,0.888
		c-0.277,1.514-0.418,3.116-0.418,4.805s0.141,3.29,0.418,4.805c0.07,0.349,0.23,0.645,0.484,0.888
		c0.252,0.244,0.553,0.392,0.9,0.444c2.523,0.365,4.988,0.548,7.388,0.548c2.405,0,4.868-0.183,7.392-0.548
		c0.348-0.053,0.648-0.2,0.902-0.444c0.252-0.243,0.412-0.539,0.482-0.888c0.277-1.515,0.416-3.116,0.416-4.805
		s-0.139-3.291-0.416-4.805C76.76,23.729,76.599,23.432,76.347,23.189z M72.65,29.613l-5.85,3.343l-1.252,0.704v-9.557l1.252,0.705
		l5.85,3.343l1.254,0.73L72.65,29.613z"/>
	<path fill="#5A5A5A" d="M67.665,8.555c-11.378,0-20.607,9.226-20.607,20.607s9.229,20.606,20.607,20.606
		c11.382,0,20.608-9.225,20.608-20.606S79.047,8.555,67.665,8.555z M78.474,33.999c-0.121,0.697-0.443,1.289-0.967,1.776
		c-0.521,0.487-1.131,0.784-1.826,0.888c-2.629,0.384-5.17,0.575-7.628,0.575c-2.453,0-4.996-0.191-7.625-0.575
		c-0.695-0.104-1.303-0.4-1.828-0.888c-0.521-0.487-0.844-1.079-0.965-1.776c-0.297-1.618-0.443-3.324-0.443-5.117
		s0.146-3.5,0.443-5.118c0.121-0.696,0.439-1.288,0.953-1.776c0.514-0.486,1.127-0.783,1.84-0.888
		c2.629-0.383,5.172-0.574,7.625-0.574c2.458,0,4.999,0.191,7.628,0.574c0.713,0.104,1.326,0.401,1.84,0.888
		c0.514,0.488,0.832,1.08,0.953,1.776c0.297,1.602,0.443,3.303,0.443,5.104S78.771,32.38,78.474,33.999z"/>
</g>
</svg>
