<?xml version="1.0" encoding="utf-8"?>
<!-- Generator: Adobe Illustrator 16.0.0, SVG Export Plug-In . SVG Version: 6.00 Build 0)  -->
<!DOCTYPE svg PUBLIC "-//W3C//DTD SVG 1.1//EN" "http://www.w3.org/Graphics/SVG/1.1/DTD/svg11.dtd">
<svg version="1.1" id="Calque_1" xmlns="http://www.w3.org/2000/svg" xmlns:xlink="http://www.w3.org/1999/xlink" x="0px" y="0px"
	 width="33.902px" height="33.765px" viewBox="50.713 12.181 33.902 33.765" enable-background="new 50.713 12.181 33.902 33.765"
	 xml:space="preserve">
<g>
	<circle fill="#010101" cx="67.663" cy="29.132" r="16.95"/>
	<g>
		<path fill="#FFFFFF" d="M71.096,21.339c0.802,0,1.543,0.201,2.223,0.602c0.681,0.401,1.221,0.941,1.622,1.622
			c0.4,0.68,0.602,1.421,0.602,2.223v6.229c0,0.803-0.201,1.543-0.602,2.223C74.54,34.918,74,35.458,73.319,35.86
			c-0.68,0.4-1.421,0.601-2.223,0.601h-6.229c-0.802,0-1.543-0.2-2.223-0.601c-0.681-0.401-1.222-0.941-1.622-1.623
			c-0.401-0.68-0.602-1.42-0.602-2.223v-6.229c0-0.802,0.2-1.543,0.602-2.223c0.4-0.68,0.941-1.221,1.622-1.622
			c0.68-0.401,1.421-0.602,2.223-0.602H71.096z M63.321,23.122c-0.473,0.272-0.846,0.645-1.117,1.117
			c-0.272,0.472-0.408,0.988-0.408,1.546v6.229c0,0.559,0.136,1.074,0.408,1.547c0.271,0.473,0.645,0.845,1.117,1.117
			c0.473,0.271,0.987,0.408,1.546,0.408h6.229c0.559,0,1.074-0.137,1.547-0.408c0.472-0.272,0.845-0.645,1.116-1.117
			c0.272-0.473,0.408-0.988,0.408-1.547v-6.229c0-0.559-0.136-1.074-0.408-1.546c-0.271-0.473-0.645-0.845-1.116-1.117
			c-0.473-0.272-0.988-0.408-1.547-0.408h-6.229C64.308,22.713,63.794,22.85,63.321,23.122z M70.044,25.334
			c0.63,0.373,1.131,0.874,1.504,1.504c0.372,0.63,0.559,1.317,0.559,2.062s-0.187,1.432-0.559,2.062
			c-0.373,0.631-0.874,1.132-1.504,1.504c-0.63,0.373-1.317,0.559-2.062,0.559c-0.745,0-1.433-0.186-2.063-0.559
			c-0.63-0.372-1.131-0.873-1.504-1.504c-0.372-0.63-0.559-1.317-0.559-2.062s0.187-1.432,0.559-2.062
			c0.373-0.63,0.874-1.131,1.504-1.504c0.63-0.372,1.317-0.559,2.063-0.559C68.726,24.775,69.414,24.962,70.044,25.334z
			 M66.596,26.516c-0.423,0.244-0.756,0.577-0.999,0.999c-0.243,0.423-0.365,0.884-0.365,1.386s0.122,0.963,0.365,1.385
			c0.243,0.423,0.576,0.756,0.999,0.999c0.422,0.244,0.884,0.365,1.386,0.365c0.501,0,0.963-0.121,1.385-0.365
			c0.423-0.243,0.756-0.576,0.999-0.999c0.243-0.422,0.365-0.883,0.365-1.385s-0.122-0.963-0.365-1.386
			c-0.243-0.422-0.576-0.755-0.999-0.999c-0.422-0.244-0.884-0.365-1.385-0.365C67.48,26.15,67.018,26.272,66.596,26.516z
			 M72.482,24.4c0.121,0.122,0.183,0.268,0.183,0.44s-0.062,0.319-0.183,0.44c-0.122,0.122-0.269,0.183-0.44,0.183
			s-0.319-0.061-0.44-0.183c-0.122-0.122-0.183-0.269-0.183-0.44s0.061-0.318,0.183-0.44c0.121-0.122,0.269-0.183,0.44-0.183
			S72.36,24.278,72.482,24.4z"/>
	</g>
</g>
</svg>
