<?xml version="1.0" encoding="utf-8"?>
<!-- Generator: Adobe Illustrator 16.0.0, SVG Export Plug-In . SVG Version: 6.00 Build 0)  -->
<!DOCTYPE svg PUBLIC "-//W3C//DTD SVG 1.1//EN" "http://www.w3.org/Graphics/SVG/1.1/DTD/svg11.dtd">
<svg version="1.1" id="Calque_1" xmlns="http://www.w3.org/2000/svg" xmlns:xlink="http://www.w3.org/1999/xlink" x="0px" y="0px"
	 width="33.902px" height="33.765px" viewBox="50.713 12.181 33.902 33.765" enable-background="new 50.713 12.181 33.902 33.765"
	 xml:space="preserve">
<g>
	<circle fill="#010101" cx="67.664" cy="29.063" r="16.951"/>
	<g>
		<path fill="#FFFFFF" d="M73.943,26.513l0.02,0.41c0,1.029-0.188,2.058-0.566,3.086c-0.403,1.055-0.97,1.992-1.699,2.813
			c-0.781,0.886-1.692,1.569-2.734,2.051c-1.146,0.534-2.402,0.801-3.77,0.801c-0.847,0-1.673-0.124-2.48-0.371
			c-0.794-0.234-1.536-0.573-2.227-1.016c0.247,0.026,0.495,0.046,0.742,0.059c0.703,0,1.38-0.117,2.031-0.352
			s1.243-0.56,1.777-0.977c-0.664-0.013-1.26-0.218-1.787-0.615s-0.889-0.901-1.084-1.514c0.195,0.026,0.391,0.039,0.586,0.039
			c0.273,0,0.54-0.032,0.801-0.098c-0.703-0.143-1.289-0.498-1.758-1.064s-0.703-1.221-0.703-1.963v-0.039
			c0.43,0.248,0.892,0.378,1.387,0.391c-0.417-0.273-0.749-0.638-0.996-1.094c-0.247-0.456-0.371-0.944-0.371-1.465
			c0-0.56,0.137-1.074,0.41-1.543c0.781,0.951,1.712,1.699,2.793,2.246c1.12,0.586,2.305,0.905,3.555,0.957
			c-0.052-0.221-0.078-0.456-0.078-0.703c0-0.547,0.14-1.058,0.42-1.533c0.28-0.475,0.654-0.85,1.123-1.123s0.983-0.41,1.543-0.41
			c0.43,0,0.84,0.085,1.23,0.254c0.391,0.169,0.729,0.41,1.016,0.723c0.69-0.143,1.341-0.397,1.953-0.762
			c-0.117,0.365-0.293,0.693-0.527,0.986s-0.508,0.537-0.82,0.732c0.612-0.078,1.198-0.241,1.758-0.488
			C75.069,25.556,74.555,26.083,73.943,26.513z"/>
	</g>
</g>
</svg>
