<?xml version="1.0" encoding="utf-8"?>
<!-- Generator: Adobe Illustrator 16.0.0, SVG Export Plug-In . SVG Version: 6.00 Build 0)  -->
<!DOCTYPE svg PUBLIC "-//W3C//DTD SVG 1.1//EN" "http://www.w3.org/Graphics/SVG/1.1/DTD/svg11.dtd">
<svg version="1.1" id="Calque_1" xmlns="http://www.w3.org/2000/svg" xmlns:xlink="http://www.w3.org/1999/xlink" x="0px" y="0px"
	 width="33.902px" height="33.765px" viewBox="50.713 12.181 33.902 33.765" enable-background="new 50.713 12.181 33.902 33.765"
	 xml:space="preserve">
<g>
	<g>
		<path fill="#FFFFFF" d="M74.257,22.499c0.587,0.086,1.092,0.33,1.515,0.73c0.422,0.401,0.684,0.888,0.784,1.46
			c0.243,1.318,0.365,2.717,0.365,4.2c0,1.481-0.122,2.889-0.365,4.221c-0.101,0.572-0.365,1.06-0.795,1.461
			c-0.43,0.4-0.931,0.645-1.504,0.73c-2.162,0.314-4.253,0.473-6.271,0.473c-2.02,0-4.11-0.158-6.272-0.473
			c-0.573-0.086-1.074-0.33-1.504-0.73c-0.43-0.401-0.694-0.889-0.795-1.461c-0.243-1.332-0.364-2.735-0.364-4.21
			c0-1.475,0.121-2.878,0.364-4.21c0.101-0.572,0.362-1.06,0.784-1.46c0.423-0.401,0.928-0.645,1.515-0.73
			c2.162-0.314,4.253-0.472,6.272-0.472C70.004,22.026,72.094,22.184,74.257,22.499z M61.906,23.852
			c-0.287,0.043-0.534,0.165-0.741,0.365c-0.208,0.201-0.34,0.444-0.397,0.73c-0.229,1.246-0.344,2.563-0.344,3.953
			c0,1.389,0.114,2.706,0.344,3.952c0.058,0.287,0.189,0.529,0.397,0.73c0.207,0.201,0.454,0.322,0.741,0.365
			c2.076,0.301,4.103,0.451,6.079,0.451c1.976,0,4.002-0.15,6.078-0.451c0.286-0.043,0.533-0.164,0.741-0.365
			c0.207-0.201,0.34-0.443,0.397-0.73c0.229-1.246,0.344-2.563,0.344-3.952c0-1.389-0.115-2.707-0.344-3.953
			c-0.058-0.286-0.19-0.529-0.397-0.73c-0.208-0.201-0.455-0.322-0.741-0.365c-2.076-0.301-4.103-0.451-6.078-0.451
			C65.994,23.401,63.968,23.551,61.906,23.852z M66.954,25.549l4.812,2.75l1.031,0.602l-1.031,0.601l-4.812,2.75l-1.031,0.58v-7.862
			L66.954,25.549z M67.298,30.468l2.728-1.568l-2.728-1.568V30.468z"/>
	</g>
</g>
<g>
	<path fill="#FF6600" d="M84.617,29.132c0,9.362-7.59,16.951-16.953,16.951c-9.359,0-16.951-7.589-16.951-16.951
		s7.592-16.951,16.951-16.951C77.027,12.181,84.617,19.77,84.617,29.132z"/>
	<g>
		<path fill="#FFFFFF" d="M74.257,22.499c0.587,0.086,1.092,0.33,1.515,0.73c0.422,0.401,0.684,0.888,0.784,1.46
			c0.243,1.318,0.365,2.717,0.365,4.2c0,1.481-0.122,2.889-0.365,4.221c-0.101,0.572-0.365,1.06-0.795,1.461
			c-0.43,0.4-0.931,0.645-1.504,0.73c-2.162,0.314-4.253,0.473-6.271,0.473c-2.02,0-4.11-0.158-6.272-0.473
			c-0.573-0.086-1.074-0.33-1.504-0.73c-0.43-0.401-0.694-0.889-0.795-1.461c-0.243-1.332-0.364-2.735-0.364-4.21
			c0-1.475,0.121-2.878,0.364-4.21c0.101-0.572,0.362-1.06,0.784-1.46c0.423-0.401,0.928-0.645,1.515-0.73
			c2.162-0.314,4.253-0.472,6.272-0.472C70.004,22.026,72.094,22.184,74.257,22.499z M61.906,23.852
			c-0.287,0.043-0.534,0.165-0.741,0.365c-0.208,0.201-0.34,0.444-0.397,0.73c-0.229,1.246-0.344,2.563-0.344,3.953
			c0,1.389,0.114,2.706,0.344,3.952c0.058,0.287,0.189,0.529,0.397,0.73c0.207,0.201,0.454,0.322,0.741,0.365
			c2.076,0.301,4.103,0.451,6.079,0.451c1.976,0,4.002-0.15,6.078-0.451c0.286-0.043,0.533-0.164,0.741-0.365
			c0.207-0.201,0.34-0.443,0.397-0.73c0.229-1.246,0.344-2.563,0.344-3.952c0-1.389-0.115-2.707-0.344-3.953
			c-0.058-0.286-0.19-0.529-0.397-0.73c-0.208-0.201-0.455-0.322-0.741-0.365c-2.076-0.301-4.103-0.451-6.078-0.451
			C65.994,23.401,63.968,23.551,61.906,23.852z M66.954,25.549l4.812,2.75l1.031,0.602l-1.031,0.601l-4.812,2.75l-1.031,0.58v-7.862
			L66.954,25.549z M67.298,30.468l2.728-1.568l-2.728-1.568V30.468z"/>
	</g>
</g>
</svg>
