<?xml version="1.0" encoding="utf-8"?>
<!-- Generator: Adobe Illustrator 16.0.0, SVG Export Plug-In . SVG Version: 6.00 Build 0)  -->
<!DOCTYPE svg PUBLIC "-//W3C//DTD SVG 1.1//EN" "http://www.w3.org/Graphics/SVG/1.1/DTD/svg11.dtd">
<svg version="1.1" id="Calque_1" xmlns="http://www.w3.org/2000/svg" xmlns:xlink="http://www.w3.org/1999/xlink" x="0px" y="0px"
	 width="41.214px" height="41.214px" viewBox="47.057 8.456 41.214 41.214" enable-background="new 47.057 8.456 41.214 41.214"
	 xml:space="preserve">
<g>
	<circle fill="#FF6600" cx="978.265" cy="509.312" r="16.951"/>
	<g>
		<path fill="#FFFFFF" d="M984.545,506.762l0.02,0.41c0,1.028-0.188,2.058-0.566,3.086c-0.403,1.055-0.97,1.992-1.699,2.813
			c-0.781,0.886-1.692,1.569-2.734,2.051c-1.146,0.534-2.402,0.801-3.77,0.801c-0.847,0-1.673-0.124-2.48-0.371
			c-0.794-0.234-1.536-0.573-2.227-1.016c0.247,0.026,0.495,0.046,0.742,0.059c0.703,0,1.38-0.117,2.031-0.352
			s1.243-0.56,1.777-0.977c-0.664-0.013-1.26-0.218-1.787-0.615s-0.889-0.901-1.084-1.514c0.195,0.026,0.391,0.039,0.586,0.039
			c0.273,0,0.54-0.032,0.801-0.098c-0.703-0.144-1.289-0.498-1.758-1.064s-0.703-1.221-0.703-1.963v-0.039
			c0.43,0.247,0.892,0.378,1.387,0.391c-0.417-0.273-0.749-0.638-0.996-1.094s-0.371-0.944-0.371-1.465
			c0-0.56,0.137-1.074,0.41-1.543c0.781,0.95,1.712,1.699,2.793,2.246c1.12,0.586,2.305,0.905,3.555,0.957
			c-0.052-0.222-0.078-0.456-0.078-0.703c0-0.547,0.14-1.058,0.42-1.533s0.654-0.85,1.123-1.123s0.983-0.41,1.543-0.41
			c0.43,0,0.84,0.085,1.23,0.254s0.729,0.41,1.016,0.723c0.69-0.144,1.341-0.397,1.953-0.762c-0.117,0.364-0.293,0.693-0.527,0.986
			s-0.508,0.537-0.82,0.732c0.612-0.078,1.198-0.241,1.758-0.488C985.671,505.805,985.157,506.333,984.545,506.762z"/>
	</g>
</g>
<g>
	<polygon fill="#FF6600" points="67.218,30.689 70.536,28.782 67.218,26.876 	"/>
	<path fill="#FF6600" d="M76.346,23.09c-0.254-0.244-0.555-0.392-0.902-0.444c-2.523-0.365-4.986-0.549-7.391-0.549
		c-2.42,0-4.881,0.184-7.389,0.549c-0.348,0.053-0.648,0.2-0.9,0.444c-0.254,0.243-0.414,0.54-0.484,0.888
		c-0.277,1.514-0.418,3.116-0.418,4.805c0,1.688,0.141,3.29,0.418,4.805c0.07,0.348,0.23,0.645,0.484,0.887
		c0.252,0.244,0.553,0.393,0.9,0.445c2.523,0.365,4.988,0.547,7.389,0.547c2.404,0,4.867-0.182,7.391-0.547
		c0.348-0.053,0.648-0.201,0.902-0.445c0.252-0.242,0.412-0.539,0.482-0.887c0.277-1.516,0.416-3.117,0.416-4.805
		c0-1.688-0.139-3.291-0.416-4.805C76.759,23.63,76.598,23.333,76.346,23.09z M72.649,29.514l-5.85,3.343l-1.252,0.703v-9.556
		l1.252,0.705l5.85,3.343l1.254,0.73L72.649,29.514z"/>
	<path fill="#FF6600" d="M67.665,8.456c-11.379,0-20.608,9.226-20.608,20.607c0,11.381,9.229,20.606,20.608,20.606
		c11.381,0,20.607-9.225,20.607-20.606C88.272,17.682,79.046,8.456,67.665,8.456z M78.473,33.9
		c-0.121,0.697-0.443,1.289-0.967,1.775c-0.521,0.488-1.131,0.785-1.826,0.889c-2.629,0.383-5.17,0.574-7.627,0.574
		c-2.454,0-4.997-0.191-7.625-0.574c-0.695-0.104-1.303-0.4-1.828-0.889c-0.521-0.486-0.844-1.078-0.965-1.775
		c-0.297-1.619-0.443-3.324-0.443-5.118c0-1.793,0.146-3.5,0.443-5.118c0.121-0.696,0.439-1.288,0.953-1.776
		c0.514-0.486,1.127-0.783,1.84-0.888c2.629-0.383,5.172-0.574,7.625-0.574c2.457,0,4.998,0.191,7.627,0.574
		c0.713,0.104,1.326,0.401,1.84,0.888c0.514,0.488,0.832,1.08,0.953,1.776c0.297,1.602,0.443,3.303,0.443,5.104
		C78.917,30.57,78.77,32.281,78.473,33.9z"/>
</g>
</svg>
