<?xml version="1.0" encoding="utf-8"?>
<!-- Generator: Adobe Illustrator 16.0.0, SVG Export Plug-In . SVG Version: 6.00 Build 0)  -->
<!DOCTYPE svg PUBLIC "-//W3C//DTD SVG 1.1//EN" "http://www.w3.org/Graphics/SVG/1.1/DTD/svg11.dtd">
<svg version="1.1" id="Calque_1" xmlns="http://www.w3.org/2000/svg" xmlns:xlink="http://www.w3.org/1999/xlink" x="0px" y="0px"
	 width="41.214px" height="41.214px" viewBox="47.057 8.456 41.214 41.214" enable-background="new 47.057 8.456 41.214 41.214"
	 xml:space="preserve">
<g>
	<circle fill="#FF6600" cx="978.265" cy="509.312" r="16.951"/>
	<g>
		<path fill="#FFFFFF" d="M984.545,506.762l0.02,0.41c0,1.028-0.188,2.058-0.566,3.086c-0.403,1.055-0.97,1.992-1.699,2.813
			c-0.781,0.886-1.692,1.569-2.734,2.051c-1.146,0.534-2.402,0.801-3.77,0.801c-0.847,0-1.673-0.124-2.48-0.371
			c-0.794-0.234-1.536-0.573-2.227-1.016c0.247,0.026,0.495,0.046,0.742,0.059c0.703,0,1.38-0.117,2.031-0.352
			s1.243-0.56,1.777-0.977c-0.664-0.013-1.26-0.218-1.787-0.615s-0.889-0.901-1.084-1.514c0.195,0.026,0.391,0.039,0.586,0.039
			c0.273,0,0.54-0.032,0.801-0.098c-0.703-0.144-1.289-0.498-1.758-1.064s-0.703-1.221-0.703-1.963v-0.039
			c0.43,0.247,0.892,0.378,1.387,0.391c-0.417-0.273-0.749-0.638-0.996-1.094s-0.371-0.944-0.371-1.465
			c0-0.56,0.137-1.074,0.41-1.543c0.781,0.95,1.712,1.699,2.793,2.246c1.12,0.586,2.305,0.905,3.555,0.957
			c-0.052-0.222-0.078-0.456-0.078-0.703c0-0.547,0.14-1.058,0.42-1.533s0.654-0.85,1.123-1.123s0.983-0.41,1.543-0.41
			c0.43,0,0.84,0.085,1.23,0.254s0.729,0.41,1.016,0.723c0.69-0.144,1.341-0.397,1.953-0.762c-0.117,0.364-0.293,0.693-0.527,0.986
			s-0.508,0.537-0.82,0.732c0.612-0.078,1.198-0.241,1.758-0.488C985.671,505.805,985.157,506.333,984.545,506.762z"/>
	</g>
</g>
<path fill="#5A5A5A" d="M67.667,8.456c-11.383,0-20.61,9.226-20.61,20.607c0,11.381,9.227,20.606,20.61,20.606
	c11.379,0,20.605-9.225,20.605-20.606C88.272,17.682,79.046,8.456,67.667,8.456z M75.3,25.964l0.023,0.499
	c0,1.25-0.229,2.501-0.688,3.751c-0.49,1.281-1.18,2.422-2.066,3.418c-0.947,1.078-2.057,1.908-3.322,2.494
	c-1.395,0.65-2.922,0.973-4.584,0.973c-1.027,0-2.033-0.148-3.016-0.451c-0.965-0.283-1.867-0.695-2.707-1.234
	c0.303,0.033,0.604,0.057,0.902,0.072c0.855,0,1.68-0.143,2.469-0.428c0.793-0.285,1.514-0.68,2.162-1.188
	c-0.807-0.016-1.531-0.264-2.174-0.748c-0.641-0.482-1.078-1.096-1.316-1.84c0.238,0.031,0.475,0.047,0.711,0.047
	c0.332,0,0.658-0.039,0.975-0.119c-0.855-0.174-1.566-0.604-2.137-1.293c-0.57-0.688-0.855-1.483-0.855-2.386v-0.048
	c0.523,0.301,1.084,0.46,1.686,0.475c-0.506-0.332-0.91-0.775-1.211-1.329c-0.299-0.554-0.451-1.147-0.451-1.781
	c0-0.681,0.166-1.306,0.5-1.875c0.949,1.155,2.08,2.065,3.395,2.73c1.361,0.712,2.801,1.101,4.323,1.163
	c-0.064-0.27-0.096-0.554-0.096-0.855c0-0.664,0.17-1.285,0.51-1.863c0.342-0.578,0.797-1.032,1.367-1.365
	c0.568-0.333,1.195-0.499,1.875-0.499c0.523,0,1.021,0.104,1.496,0.309c0.475,0.207,0.887,0.499,1.234,0.879
	c0.84-0.174,1.629-0.482,2.375-0.926c-0.143,0.443-0.355,0.843-0.641,1.198c-0.287,0.357-0.619,0.653-0.998,0.891
	c0.744-0.095,1.455-0.292,2.137-0.593C76.671,24.8,76.044,25.441,75.3,25.964z"/>
</svg>
