<?xml version="1.0" encoding="utf-8"?>
<!-- Generator: Adobe Illustrator 16.0.0, SVG Export Plug-In . SVG Version: 6.00 Build 0)  -->
<!DOCTYPE svg PUBLIC "-//W3C//DTD SVG 1.1//EN" "http://www.w3.org/Graphics/SVG/1.1/DTD/svg11.dtd">
<svg version="1.1" id="Calque_1" xmlns="http://www.w3.org/2000/svg" xmlns:xlink="http://www.w3.org/1999/xlink" x="0px" y="0px"
	 width="33.902px" height="33.765px" viewBox="50.713 12.181 33.902 33.765" enable-background="new 50.713 12.181 33.902 33.765"
	 xml:space="preserve">
<g>
	<circle fill="#FF6600" cx="978.265" cy="509.312" r="16.951"/>
	<g>
		<path fill="#FFFFFF" d="M984.545,506.762l0.02,0.41c0,1.028-0.188,2.058-0.566,3.086c-0.403,1.055-0.97,1.992-1.699,2.813
			c-0.781,0.886-1.692,1.569-2.734,2.051c-1.146,0.534-2.402,0.801-3.77,0.801c-0.847,0-1.673-0.124-2.48-0.371
			c-0.794-0.234-1.536-0.573-2.227-1.016c0.247,0.026,0.495,0.046,0.742,0.059c0.703,0,1.38-0.117,2.031-0.352
			s1.243-0.56,1.777-0.977c-0.664-0.013-1.26-0.218-1.787-0.615s-0.889-0.901-1.084-1.514c0.195,0.026,0.391,0.039,0.586,0.039
			c0.273,0,0.54-0.032,0.801-0.098c-0.703-0.144-1.289-0.498-1.758-1.064s-0.703-1.221-0.703-1.963v-0.039
			c0.43,0.247,0.892,0.378,1.387,0.391c-0.417-0.273-0.749-0.638-0.996-1.094s-0.371-0.944-0.371-1.465
			c0-0.56,0.137-1.074,0.41-1.543c0.781,0.95,1.712,1.699,2.793,2.246c1.12,0.586,2.305,0.905,3.555,0.957
			c-0.052-0.222-0.078-0.456-0.078-0.703c0-0.547,0.14-1.058,0.42-1.533s0.654-0.85,1.123-1.123s0.983-0.41,1.543-0.41
			c0.43,0,0.84,0.085,1.23,0.254s0.729,0.41,1.016,0.723c0.69-0.144,1.341-0.397,1.953-0.762c-0.117,0.364-0.293,0.693-0.527,0.986
			s-0.508,0.537-0.82,0.732c0.612-0.078,1.198-0.241,1.758-0.488C985.671,505.805,985.157,506.333,984.545,506.762z"/>
	</g>
</g>
<g>
	<circle fill="#FF6600" cx="67.664" cy="29.132" r="16.951"/>
	<g>
		<path fill="#FFFFFF" d="M72.203,20.585v2.988h-1.719c-0.508,0-0.869,0.134-1.084,0.4c-0.215,0.267-0.322,0.687-0.322,1.26v2.09
			h3.125l-0.625,3.125h-2.5v7.5h-3.125v-7.5h-3.125v-3.125h3.125v-2.617c0-1.445,0.345-2.526,1.035-3.242
			c0.651-0.677,1.608-1.016,2.871-1.016C70.784,20.449,71.565,20.495,72.203,20.585z"/>
	</g>
</g>
</svg>
