<?xml version="1.0" encoding="utf-8"?>
<!-- Generator: Adobe Illustrator 16.0.0, SVG Export Plug-In . SVG Version: 6.00 Build 0)  -->
<!DOCTYPE svg PUBLIC "-//W3C//DTD SVG 1.1//EN" "http://www.w3.org/Graphics/SVG/1.1/DTD/svg11.dtd">
<svg version="1.1" id="Calque_1" xmlns="http://www.w3.org/2000/svg" xmlns:xlink="http://www.w3.org/1999/xlink" x="0px" y="0px"
	 width="340.242px" height="59.885px" viewBox="0 0 340.242 59.885" enable-background="new 0 0 340.242 59.885"
	 xml:space="preserve">
<g>
	<polygon fill="#FF6600" points="218.837,1.426 182.496,59.885 196.332,59.885 232.671,1.426 	"/>
	<path fill="#5A5A5A" d="M152.355,35.627c2.716,1.515,6.945,2.714,12.033,2.714c4.597,0,9.398-1.642,10.652-4.986
		c0.898-2.398-0.891-3.976-5.225-5.995c-4.986-2.462-9.337-5.744-7.256-11.297c3.217-8.585,14.946-13.822,27.012-13.822
		c6.729,0,10.244,1.137,12.244,2.145l-6.529,7.574c-1.523-0.757-5.014-1.956-9.633-1.895c-5.498,0-9.176,2.147-10.051,4.481
		c-0.922,2.462,1.875,3.978,5.797,5.997c5.713,2.713,8.68,6.185,6.787,11.233c-3.547,9.468-15.543,14.327-27.857,14.327
		c-7.715,0-12.646-1.516-14.704-3.03L152.355,35.627z"/>
	<path fill="#5A5A5A" d="M52.995,45.473L66.8,2.934h11.9l-7.013,18.935c-1.997,5.112-3.901,9.972-5.483,13.759h0.164
		c3.449-4.165,7.107-8.456,11.593-13.632L95.034,2.934h12.967l-7.282,18.998c-1.997,5.111-3.746,9.34-5.552,13.506h0.163
		c3.544-4.418,7.322-9.025,11.159-13.569l16.697-18.935h12.394L95.265,45.473H82.378l6.141-17.482
		c1.867-4.986,3.64-9.278,5.766-14.075H94.12c-3.755,4.545-7.346,9.089-12.1,14.328L66.126,45.473H52.995z"/>
	<g>
		<g>
			<path fill="#5A5A5A" d="M6.732,35.627c2.714,1.515,6.944,2.714,12.032,2.714c4.598,0,9.398-1.642,10.651-4.986
				c0.898-2.398-0.89-3.976-5.223-5.995c-4.987-2.462-9.339-5.744-7.257-11.297C20.152,7.478,31.883,2.24,43.947,2.24
				c6.731,0,10.245,1.137,12.246,2.145l-6.53,7.574c-1.521-0.757-5.013-1.956-9.633-1.895c-5.499,0-9.176,2.147-10.051,4.481
				c-0.923,2.462,1.875,3.978,5.797,5.997c5.713,2.713,8.68,6.185,6.789,11.233c-3.547,9.468-15.546,14.327-27.858,14.327
				c-7.715,0-12.646-1.516-14.706-3.03L6.732,35.627z"/>
		</g>
	</g>
	<path fill="#5A5A5A" d="M157.255,2.934L130.81,45.473h-11.82l26.446-42.539H157.255z"/>
	<polygon fill="#5A5A5A" points="258.019,0 246.267,18.893 229.378,18.893 223.664,28.086 240.488,28.086 227.919,48.414 
		241.373,48.414 271.47,0 	"/>
	<path fill="#5A5A5A" d="M289.107,8.273l-7.734,12.435h15.064l7.732-12.435h8.854l-19.809,31.867h-8.855l8.273-13.38H277.63
		l-8.336,13.38h-8.854l19.813-31.867H289.107z"/>
	<path fill="#5A5A5A" d="M326.656,15.158l-4.391,7.062h8.555l4.393-7.062h5.029L328.99,33.257h-5.029l4.699-7.601h-8.52
		l-4.734,7.601h-5.029l11.252-18.099H326.656z"/>
</g>
</svg>
